<?xml version="1.0" standalone="no"?>
<!DOCTYPE svg PUBLIC "-//W3C//DTD SVG 20010904//EN"
 "http://www.w3.org/TR/2001/REC-SVG-20010904/DTD/svg10.dtd">
<svg version="1.0" xmlns="http://www.w3.org/2000/svg"
 width="376.000000pt" height="376.000000pt" viewBox="0 0 376.000000 376.000000"
 preserveAspectRatio="xMidYMid meet">

<g transform="translate(0.000000,376.000000) scale(0.100000,-0.100000)"
fill="#df2729" stroke="none">
<path d="M0 1880 l0 -1880 2140 0 2140 0 0 1880 0 1880 -2140 0 -2140 0 0
-1880z m1660 1610 c0 -11 -7 -20 -15 -20 -8 0 -15 9 -15 20 0 11 7 20 15 20 8
0 15 -9 15 -20z m-880 -28 c42 -32 55 -69 55 -164 0 -72 -3 -91 -21 -115 l-21
-28 26 -34 c25 -33 26 -41 26 -150 0 -104 -2 -120 -24 -158 -56 -98 -181 -94
-234 8 -15 28 -17 54 -15 156 3 105 6 125 24 150 20 27 20 29 2 58 -25 42 -25
185 0 235 33 67 121 87 182 42z m-260 -348 l0 -365 -47 3 -48 3 -5 267 -5 267
-24 -34 c-13 -20 -26 -34 -28 -32 -2 2 -4 31 -5 64 -1 55 2 65 42 126 41 64
45 67 81 67 l39 0 0 -366z m692 333 c15 -23 8 -37 -18 -37 -22 0 -24 2 -14 15
10 12 9 16 -4 21 -9 3 -23 3 -32 0 -13 -5 -14 -9 -4 -21 10 -12 9 -15 -4 -15
-26 0 -32 31 -10 47 21 16 73 10 86 -10z m123 9 c16 -12 17 -16 6 -30 -7 -9
-21 -16 -29 -16 -12 0 -13 3 -4 12 7 7 12 16 12 20 0 12 -48 10 -55 -2 -3 -5
-1 -10 4 -10 6 0 11 -4 11 -10 0 -17 -30 -11 -37 6 -13 36 55 57 92 30z m307
2 c8 -7 18 -21 21 -30 5 -14 1 -18 -18 -18 -14 0 -25 5 -25 10 0 6 5 10 11 10
5 0 7 5 4 10 -3 6 -17 10 -31 10 -21 0 -24 -4 -19 -20 8 -24 -7 -26 -26 -4
-26 32 48 60 83 32z m488 -34 c0 -8 9 -14 19 -14 30 0 35 -19 12 -44 -24 -26
-28 -66 -6 -66 8 0 15 -9 15 -20 0 -24 -35 -28 -44 -4 -11 30 -6 77 11 96 13
15 13 18 2 13 -10 -4 -20 6 -30 29 -9 20 -14 38 -11 41 8 8 32 -16 32 -31z
m-338 -66 c-2 -40 -9 -79 -14 -85 -6 -7 -28 -13 -49 -13 -46 0 -67 26 -49 61
8 15 8 24 0 34 -13 16 -5 35 15 35 23 0 28 -20 15 -61 -16 -47 -5 -65 34 -55
25 6 26 10 26 75 0 63 4 81 19 81 4 0 5 -33 3 -72z m-592 17 c19 -23 2 -52
-40 -69 -21 -8 -41 -20 -45 -26 -9 -15 3 -12 35 6 39 24 60 13 60 -31 0 -19
-4 -35 -10 -35 -5 0 -10 16 -10 35 0 38 -10 44 -30 19 -17 -20 -64 -14 -68 9
-3 13 9 23 42 38 51 22 65 37 45 50 -27 17 -49 10 -46 -13 1 -14 -4 -23 -16
-26 -22 -4 -33 24 -17 43 16 19 84 19 100 0z m138 3 c7 -7 12 -30 12 -53 0
-50 -13 -65 -60 -65 -40 0 -60 14 -60 43 0 13 6 18 23 15 16 -2 21 -9 20 -26
-2 -15 3 -22 15 -22 27 0 42 20 42 57 0 41 -30 61 -68 44 -26 -13 -38 -9 -27
8 9 15 88 14 103 -1z m142 -7 c13 -25 13 -111 0 -111 -5 0 -10 22 -10 50 0 38
-4 52 -19 60 -27 14 -37 13 -55 -6 -21 -20 -21 -64 -1 -64 9 0 15 -9 15 -21 0
-15 -5 -20 -22 -17 -20 3 -23 10 -26 49 -4 58 14 79 68 79 29 0 42 -5 50 -19z
m73 -1 c-1 -8 -7 -30 -14 -47 -10 -24 -10 -36 -2 -44 19 -19 33 0 33 44 0 55
11 69 46 65 28 -3 29 -5 32 -65 2 -39 -1 -63 -8 -63 -6 0 -10 23 -10 54 0 51
-12 77 -28 61 -4 -3 -9 -30 -12 -58 -5 -50 -6 -52 -37 -55 -28 -3 -33 1 -39
23 -4 15 -2 37 5 51 6 15 7 24 1 24 -6 0 -10 7 -10 16 0 10 7 14 23 12 12 -2
21 -9 20 -18z m365 8 c7 -7 12 -30 12 -53 0 -23 -5 -46 -12 -53 -13 -13 -66
-16 -92 -6 -24 9 -20 44 4 44 18 0 25 -10 21 -32 -2 -13 34 -9 47 4 21 21 14
39 -11 33 -32 -8 -77 11 -77 33 0 28 20 42 60 42 20 0 41 -5 48 -12z m142 -7
c13 -25 13 -111 0 -111 -5 0 -10 22 -10 50 0 38 -4 52 -19 60 -27 14 -37 13
-55 -6 -21 -20 -21 -64 -1 -64 9 0 15 -9 15 -21 0 -15 -5 -20 -22 -17 -20 3
-23 10 -26 49 -4 58 14 79 68 79 29 0 42 -5 50 -19z m173 -6 c-2 -11 -6 -37
-9 -57 -3 -22 -2 -38 3 -38 5 0 9 10 9 23 -1 16 5 22 19 22 15 0 19 -6 18 -22
-3 -26 12 -31 21 -7 3 9 6 36 6 60 0 24 5 44 10 44 11 0 14 -88 4 -114 -4 -12
-20 -16 -54 -16 -61 0 -77 17 -62 65 6 21 6 37 1 41 -14 8 1 26 19 22 10 -2
16 -12 15 -23z m215 13 c15 -15 16 -118 2 -118 -6 0 -14 10 -19 22 -5 14 -17
23 -31 23 -13 0 -25 6 -27 12 -7 19 26 28 48 14 16 -9 19 -8 19 8 0 27 -26 44
-55 37 -14 -4 -25 -11 -25 -16 0 -6 -7 -10 -15 -10 -8 0 -15 4 -15 8 0 19 27
32 65 32 23 0 46 -5 53 -12z m100 -55 c2 -39 -1 -63 -8 -63 -5 0 -10 20 -10
44 0 38 -2 43 -19 39 -22 -6 -35 11 -27 33 4 10 16 14 33 12 27 -3 28 -6 31
-65z m150 0 c2 -39 -1 -63 -8 -63 -6 0 -10 23 -10 54 0 39 -4 55 -15 60 -31
11 -44 -5 -47 -57 -3 -45 -6 -52 -25 -55 -18 -3 -23 2 -23 17 0 12 6 21 15 21
9 0 15 9 15 24 0 13 -7 26 -15 30 -8 3 -15 12 -15 20 0 12 13 14 63 13 l62 -2
3 -62z m-908 -163 c0 -11 -4 -20 -10 -20 -5 0 -10 9 -10 20 0 11 5 20 10 20 6
0 10 -9 10 -20z m-248 -32 c8 -7 18 -21 21 -30 5 -14 1 -18 -18 -18 -14 0 -25
5 -25 10 0 6 5 10 11 10 5 0 7 5 4 10 -3 6 -17 10 -31 10 -21 0 -24 -4 -19
-20 8 -24 -7 -26 -26 -4 -26 32 48 60 83 32z m263 -23 c0 -13 -8 -21 -22 -23
-19 -3 -23 1 -23 23 0 22 4 26 23 23 14 -2 22 -10 22 -23z m135 10 c0 -21 27
-19 39 2 5 10 13 15 17 11 15 -15 -19 -38 -57 -38 -38 0 -55 12 -44 30 10 16
45 12 45 -5z m-522 -62 c2 -7 -3 -13 -12 -13 -22 0 -21 -59 1 -75 9 -7 13 -17
9 -23 -10 -17 -46 -15 -46 3 0 8 -3 15 -6 15 -3 0 -12 -7 -20 -15 -9 -8 -23
-15 -33 -15 -27 0 -55 25 -48 44 9 22 28 20 34 -4 7 -26 24 -25 46 0 20 24 25
72 5 52 -13 -13 -47 -16 -72 -6 -24 9 -20 44 4 44 11 0 20 -7 20 -15 0 -21 27
-19 39 3 9 14 12 14 19 4 7 -11 10 -10 16 3 7 18 37 17 44 -2z m800 0 c2 -7
-3 -13 -12 -13 -22 0 -22 -65 -1 -74 12 -4 15 3 15 32 0 46 20 78 44 69 20 -8
21 -27 1 -27 -21 0 -20 -59 2 -75 9 -7 13 -17 9 -23 -9 -16 -46 -15 -46 0 0 9
-3 9 -12 0 -17 -17 -45 -15 -52 4 -10 25 -7 83 5 105 11 22 40 22 47 2z m-980
-5 c7 -7 12 -36 12 -65 0 -49 -2 -53 -24 -53 -15 0 -27 7 -31 19 -3 11 -13 22
-22 25 -13 6 -14 4 -3 -9 10 -11 10 -19 2 -27 -17 -17 -44 -1 -40 24 5 36 47
37 75 1 l23 -28 0 51 c0 38 -4 53 -16 58 -25 10 -42 7 -59 -10 -20 -20 -33
-11 -15 11 15 18 81 20 98 3z m238 -15 c-18 -72 -18 -80 -1 -87 40 -15 55 2
55 60 0 41 4 54 15 54 11 0 15 -12 15 -46 0 -68 -12 -84 -65 -84 -54 0 -75 26
-56 67 8 17 8 29 1 38 -12 15 -3 25 23 25 16 0 18 -5 13 -27z m214 8 c13 -25
13 -111 0 -111 -5 0 -10 22 -10 50 0 38 -4 52 -19 60 -27 14 -37 13 -55 -6
-21 -20 -21 -64 -1 -64 9 0 15 -9 15 -21 0 -15 -5 -20 -22 -17 -20 3 -23 10
-26 49 -4 58 14 79 68 79 29 0 42 -5 50 -19z m67 -8 c-3 -16 -9 -40 -12 -55
-6 -21 -3 -27 14 -33 12 -3 30 -3 41 0 17 5 20 15 20 61 0 30 5 54 10 54 14 0
12 -104 -2 -118 -7 -7 -28 -12 -48 -12 -43 0 -60 14 -60 50 0 14 5 31 12 38 9
9 9 12 0 12 -7 0 -12 7 -12 15 0 9 9 15 21 15 18 0 20 -4 16 -27z m146 7 c-1
-8 -7 -30 -14 -47 -10 -24 -10 -36 -2 -44 19 -19 33 0 33 44 0 55 11 69 46 65
28 -3 29 -5 32 -65 2 -39 -1 -63 -8 -63 -6 0 -10 23 -10 54 0 51 -12 77 -28
61 -4 -3 -9 -30 -12 -58 -5 -50 -6 -52 -37 -55 -28 -3 -33 1 -39 23 -4 15 -2
37 5 51 6 15 7 24 1 24 -6 0 -10 7 -10 16 0 10 7 14 23 12 12 -2 21 -9 20 -18z
m165 -32 c3 -46 22 -75 42 -63 5 3 10 31 10 61 0 41 4 54 15 54 19 0 21 -102
3 -118 -17 -14 -113 -13 -98 2 16 16 13 76 -5 76 -9 0 -15 9 -15 21 0 15 5 20
23 17 19 -3 22 -10 25 -50z m350 -15 c2 -39 -1 -63 -8 -63 -6 0 -10 25 -10 62
0 61 0 61 -20 43 -16 -14 -23 -16 -32 -7 -20 20 -28 14 -28 -19 0 -18 7 -37
17 -44 19 -14 9 -35 -18 -35 -17 0 -19 7 -19 58 0 32 3 61 6 65 3 3 29 5 57 4
l52 -2 3 -62z m150 0 c2 -39 -1 -63 -8 -63 -6 0 -10 23 -10 54 0 39 -4 55 -15
60 -31 11 -44 -5 -47 -57 -3 -45 -6 -52 -25 -55 -18 -3 -23 2 -23 17 0 12 6
21 15 21 9 0 15 9 15 24 0 13 -7 26 -15 30 -8 3 -15 12 -15 20 0 12 13 14 63
13 l62 -2 3 -62z m-972 -619 c62 -41 58 -172 -8 -218 -31 -22 -106 -20 -145 4
-37 22 -48 53 -40 112 14 101 113 154 193 102z m-171 -255 c17 -9 45 -20 63
-24 39 -8 211 -116 227 -142 6 -11 10 -117 10 -286 l0 -268 34 -21 c19 -12 29
-24 23 -26 -7 -2 -24 5 -40 16 -15 11 -37 20 -47 19 -12 -1 -21 6 -23 18 -2
11 -9 23 -16 28 -7 4 -8 10 -1 15 6 4 8 64 5 162 -5 157 -15 200 -46 200 -26
0 -33 -41 -49 -300 -15 -250 -50 -663 -60 -727 -6 -36 -19 -40 -60 -21 -24 11
-25 15 -25 87 0 42 8 148 17 236 23 222 22 322 -3 366 -29 50 -63 66 -103 49
-18 -7 -39 -26 -47 -42 -18 -35 -44 -308 -50 -535 -5 -153 -6 -163 -24 -163
-19 0 -20 8 -20 156 0 85 -4 163 -9 172 -5 10 -13 82 -17 162 l-7 143 -30 -33
-30 -33 5 -178 c3 -97 2 -183 -3 -191 -6 -10 -13 -10 -26 -2 -14 9 -17 23 -15
65 15 332 16 317 -14 360 -45 66 -51 111 -46 351 l5 219 -28 29 c-18 18 -25
35 -21 45 5 14 14 11 56 -20 28 -21 52 -36 54 -34 2 2 13 22 24 44 46 86 67
100 172 110 41 4 81 11 89 15 16 9 31 5 76 -21z m1343 -265 c26 -18 21 -31
-16 -46 l-27 -10 23 -9 c23 -9 29 -24 12 -34 -5 -3 -10 -16 -10 -29 0 -13 -9
-31 -20 -41 -10 -9 -24 -33 -30 -51 -8 -25 -23 -40 -51 -55 -51 -26 -65 -57
-36 -81 22 -18 18 -22 -16 -18 -10 1 -25 -4 -33 -11 -17 -14 -74 -21 -74 -9 0
5 13 13 29 18 16 6 34 19 40 30 9 17 5 23 -29 46 -22 14 -46 26 -53 26 -41 0
-92 90 -81 146 5 26 3 34 -8 34 -18 0 -18 72 0 78 19 6 90 -42 115 -79 39 -59
98 -46 137 30 21 43 64 81 89 81 9 0 27 -7 39 -16z m90 -396 c7 -7 12 -19 12
-28 0 -9 19 -26 44 -38 37 -19 43 -25 38 -48 -2 -14 -15 -32 -28 -41 -13 -8
-24 -24 -24 -34 0 -11 -7 -19 -15 -19 -9 0 -12 6 -9 15 4 8 1 15 -4 15 -6 0
-13 -9 -17 -19 -3 -10 -15 -21 -25 -24 -24 -6 -26 8 -4 21 15 8 14 14 -11 55
-20 36 -25 54 -20 77 4 19 2 36 -5 45 -6 8 -9 19 -5 25 9 14 58 13 73 -2z
m-991 -118 c3 -11 11 -20 19 -20 7 0 17 -6 21 -14 4 -8 17 -16 28 -18 11 -2
19 -9 18 -15 -1 -6 6 -9 17 -6 23 6 27 -15 5 -23 -8 -4 -31 6 -49 20 -19 14
-39 26 -44 26 -5 0 -17 9 -27 20 -10 11 -23 20 -29 20 -13 0 55 -59 69 -60 6
0 26 -14 45 -30 19 -17 41 -30 50 -30 18 0 40 -19 40 -33 0 -5 -12 -2 -26 8
-14 9 -28 14 -31 11 -3 -3 -25 10 -48 29 -23 19 -47 35 -52 35 -6 0 -16 7 -23
15 -7 8 -16 13 -20 10 -4 -2 -15 2 -25 9 -13 9 -16 20 -11 39 5 22 12 27 37
27 22 0 32 -5 36 -20z m161 -107 c2 -8 -6 -13 -22 -13 -25 0 -33 10 -19 24 10
10 36 3 41 -11z m60 -20 c2 -8 -6 -13 -22 -13 -17 0 -26 5 -26 16 0 19 41 16
48 -3z m50 -31 c3 -9 -3 -13 -19 -10 -12 1 -24 9 -27 16 -3 9 3 13 19 10 12
-1 24 -9 27 -16z m-57 -8 c11 -14 10 -15 -11 -12 -13 1 -25 9 -28 16 -5 17 23
15 39 -4z m-1296 -366 l-6 -103 40 45 c22 24 42 42 45 39 7 -7 -42 -100 -67
-127 -52 -56 -126 -76 -202 -55 -67 19 -64 32 5 23 56 -7 62 -1 23 29 -35 28
-22 39 15 12 39 -27 51 -27 25 2 -31 34 -85 118 -80 123 2 3 30 -23 61 -56 31
-34 56 -58 56 -55 0 3 -9 23 -20 45 -22 43 -24 50 -12 50 4 0 18 -18 32 -40
27 -43 40 -51 40 -22 0 9 7 51 16 92 21 96 22 100 29 100 4 0 4 -46 0 -102z
m221 -201 c0 -39 7 -62 27 -91 42 -61 31 -133 -24 -162 -40 -20 -57 -18 -90
15 -40 40 -41 105 -2 151 21 26 27 43 27 86 1 39 5 53 14 49 6 -2 12 0 12 4 0
5 8 7 18 5 13 -4 17 -16 18 -57z m-621 -38 c4 -6 -3 -22 -16 -35 -16 -17 -18
-23 -7 -19 9 4 19 13 22 21 9 23 35 16 51 -16 16 -31 19 -67 9 -95 -6 -14 -10
-13 -31 7 l-25 23 21 -36 22 -37 -28 -21 c-36 -29 -93 -25 -109 6 -6 13 -13
21 -16 18 -3 -3 -11 2 -18 10 -17 20 -18 107 -2 113 7 2 10 7 7 12 -2 4 7 19
22 34 27 27 85 36 98 15z m320 -153 c12 -13 28 -26 36 -29 11 -4 8 -12 -13
-31 -16 -14 -28 -35 -28 -48 1 -20 2 -21 11 -5 5 9 18 17 27 17 14 0 15 2 2
10 -12 7 -12 12 4 29 11 12 22 21 25 21 3 0 16 -18 29 -40 12 -22 18 -40 12
-40 -8 0 -7 -6 0 -20 12 -22 8 -33 -23 -67 -23 -26 -65 -30 -73 -9 -3 8 -11
13 -18 10 -27 -10 -83 85 -58 100 5 3 8 29 7 58 -2 29 -1 56 2 60 9 15 36 8
58 -16z"/>
<path d="M676 3365 c-3 -9 -6 -45 -6 -80 0 -68 14 -91 49 -80 25 8 37 77 24
132 -7 31 -14 39 -35 41 -16 2 -28 -3 -32 -13z"/>
<path d="M679 3093 c-18 -20 -25 -177 -10 -215 13 -35 55 -39 72 -7 17 32 8
217 -11 229 -22 14 -36 12 -51 -7z"/>
<path d="M1841 3371 c-20 -13 -4 -31 28 -31 34 0 44 9 30 27 -13 15 -38 17
-58 4z"/>
<path d="M1781 3104 c0 -11 3 -14 6 -6 3 7 2 16 -1 19 -3 4 -6 -2 -5 -13z"/>
<path d="M1030 1883 c0 -55 5 -54 14 5 4 26 2 42 -4 42 -5 0 -10 -21 -10 -47z"/>
<path d="M1188 1914 c-5 -4 -7 -71 -7 -148 l2 -141 8 95 c10 105 8 206 -3 194z"/>
<path d="M1114 1873 c-16 -39 -37 -131 -48 -214 l-7 -45 38 -12 c20 -6 38 -10
39 -9 1 1 5 73 9 160 8 166 1 193 -31 120z"/>
<path d="M1060 1550 c0 -10 -7 -23 -15 -30 -22 -18 -18 -50 10 -93 22 -32 29
-36 45 -27 29 15 40 43 40 98 0 49 0 50 -40 60 -35 9 -40 8 -40 -8z"/>
<path d="M313 473 c-1 -23 0 -24 9 -10 7 13 16 16 31 11 19 -6 20 -5 5 10 -25
24 -43 20 -45 -11z"/>
</g>
</svg>
